<?xml version="1.0" encoding="UTF-8"?>
<svg version="1.1" xmlns="http://www.w3.org/2000/svg" viewBox="0 0 866 288" width="866" height="288">
<path d="M0 0 C0 0.66 0 1.32 0 2 C1.32 1.67 2.64 1.34 4 1 C4 1.66 4 2.32 4 3 C4.54527344 3.14695312 5.09054688 3.29390625 5.65234375 3.4453125 C11.6884359 5.24066299 17.29983966 7.7090054 22 12 C22.75 14.19140625 22.75 14.19140625 23 16 C23.66 16 24.32 16 25 16 C25 16.66 25 17.32 25 18 C25.66 18 26.32 18 27 18 C28.15341698 20.22552258 29.29781159 22.45495969 30.4375 24.6875 C30.76298828 25.31333984 31.08847656 25.93917969 31.42382812 26.58398438 C34.15675838 31.96532127 35.15646036 36.51537601 35.375 42.5 C35.42398438 43.4178125 35.47296875 44.335625 35.5234375 45.28125 C34.77089696 49.18996804 33.05230526 50.49759579 30 53 C27.31293649 53.6970439 25.10479305 54.09805166 22.3828125 54.328125 C21.64860077 54.40746277 20.91438904 54.48680054 20.15792847 54.56854248 C17.8152103 54.81634518 15.47077866 55.03331776 13.125 55.25 C11.58833731 55.4095017 10.05187477 55.57094417 8.515625 55.734375 C4.01422653 56.20335813 -0.49059463 56.61614628 -5 57 C-5.72336548 57.06179443 -6.44673096 57.12358887 -7.1920166 57.18725586 C-9.25500447 57.35843771 -11.31846831 57.51799697 -13.3828125 57.671875 C-15.15615967 57.80480957 -15.15615967 57.80480957 -16.96533203 57.94042969 C-19.59606567 57.9920708 -21.52184726 57.81308428 -24 57 C-24 56.34 -24 55.68 -24 55 C-24.99 54.67 -25.98 54.34 -27 54 C-28.62915864 51.68434055 -29.04877599 50.47517259 -28.7578125 47.640625 C-28.54898438 46.85171875 -28.34015625 46.0628125 -28.125 45.25 C-27.92132813 44.45078125 -27.71765625 43.6515625 -27.5078125 42.828125 C-27.34023437 42.22484375 -27.17265625 41.6215625 -27 41 C-26.01 41 -25.02 41 -24 41 C-24 40.34 -24 39.68 -24 39 C-19.49793644 38.42797131 -14.99557488 37.85837041 -10.49291992 37.29101562 C-8.96126001 37.09767255 -7.42968361 36.90366672 -5.89819336 36.70898438 C-3.6966683 36.4292444 -1.49485378 36.15189042 0.70703125 35.875 C1.73374687 35.74375732 1.73374687 35.74375732 2.78120422 35.60986328 C5.54686608 35.26403323 8.20906929 35 11 35 C10.07161713 33.68103535 9.13194268 32.37001311 8.1875 31.0625 C7.66542969 30.33160156 7.14335937 29.60070312 6.60546875 28.84765625 C5.04132873 26.73116774 5.04132873 26.73116774 2 26 C2 25.34 2 24.68 2 24 C-4.18702577 21.87004031 -9.4396587 20.53140419 -16 21 C-16.99 21.495 -16.99 21.495 -18 22 C-18.66 21.67 -19.32 21.34 -20 21 C-20.33 21.66 -20.66 22.32 -21 23 C-24.0625 23.625 -24.0625 23.625 -27 24 C-27 24.66 -27 25.32 -27 26 C-27.721875 26.37125 -28.44375 26.7425 -29.1875 27.125 C-34.4838591 30.65590607 -37.64714645 36.8506657 -39 43 C-39.44492344 48.77453829 -39.17439415 53.56401463 -37 59 C-37 59.66 -37 60.32 -37 61 C-36.34 61.33 -35.68 61.66 -35 62 C-34.443125 62.928125 -33.88625 63.85625 -33.3125 64.8125 C-30.51132593 68.67357778 -28.2143392 69.8928304 -24 72 C-24 72.66 -24 73.32 -24 74 C-23.01 73.67 -22.02 73.34 -21 73 C-20.01 73.495 -20.01 73.495 -19 74 C-19 74.66 -19 75.32 -19 76 C-18.01 75.67 -17.02 75.34 -16 75 C-13.66404762 75.31445513 -11.33094534 75.6503582 -9 76 C-7.741875 76 -6.48375 76 -5.1875 76 C-2 76 -2 76 0 77 C0 76.34 0 75.68 0 75 C0.69867188 74.73445313 1.39734375 74.46890625 2.1171875 74.1953125 C3.02726562 73.84210938 3.93734375 73.48890625 4.875 73.125 C5.77992188 72.77695313 6.68484375 72.42890625 7.6171875 72.0703125 C10.12217007 71.11469105 10.12217007 71.11469105 12 69 C12.680625 68.855625 13.36125 68.71125 14.0625 68.5625 C14.701875 68.376875 15.34125 68.19125 16 68 C16.495 66.515 16.495 66.515 17 65 C21.66274039 61.82933653 25.26438074 60.33738937 31 60 C31.66 60.33 32.32 60.66 33 61 C34.41703888 65.50118231 34.63949594 67.66859042 32.5703125 71.9765625 C30.82474655 74.77960823 29.10810524 77.4571857 27 80 C26.34 80 25.68 80 25 80 C25 80.66 25 81.32 25 82 C24.34 82 23.68 82 23 82 C23 82.66 23 83.32 23 84 C20.734375 85.65625 20.734375 85.65625 17.75 87.5 C16.77546875 88.1084375 15.8009375 88.716875 14.796875 89.34375 C8.59680037 93.01530257 8.59680037 93.01530257 5.5625 92.9375 C2.92473392 92.76162393 2.92473392 92.76162393 0.9375 94.4765625 C-3.23322902 96.63957356 -6.92876506 96.49231922 -11.5625 96.4375 C-12.45638428 96.42920166 -13.35026855 96.42090332 -14.27124023 96.41235352 C-26.00026131 96.11405911 -35.77362913 92.37383184 -45 85 C-45 84.34 -45 83.68 -45 83 C-45.66 83 -46.32 83 -47 83 C-48.57742247 80.96884018 -49.98798486 78.96970321 -51.375 76.8125 C-51.77912109 76.18698242 -52.18324219 75.56146484 -52.59960938 74.91699219 C-56.3429509 68.87728961 -58.22823533 62.8761343 -60 56 C-60.33 55.34 -60.66 54.68 -61 54 C-61.43678296 47.30604721 -61.20429127 41.33733741 -59 35 C-59 34.34 -59 33.68 -59 33 C-58.34 33 -57.68 33 -57 33 C-57 31.35 -57 29.7 -57 28 C-56.34 28 -55.68 28 -55 28 C-54.01 24.535 -54.01 24.535 -53 21 C-52.34 21 -51.68 21 -51 21 C-50.566875 20.1028125 -50.566875 20.1028125 -50.125 19.1875 C-49 17 -49 17 -47 14 C-46.34 14 -45.68 14 -45 14 C-45 13.34 -45 12.68 -45 12 C-38.80765165 6.35773336 -32.38648872 2.83864887 -24 2 C-24 1.34 -24 0.68 -24 0 C-16.06695918 -1.41031837 -7.91253 -1.7108173 0 0 Z M5 84 C4.34 85.98 3.68 87.96 3 90 C3.99 90 4.98 90 6 90 C6 88.02 6 86.04 6 84 C5.67 84 5.34 84 5 84 Z " fill="#033BF5" transform="translate(138,93)"/>
<path d="M0 0 C5.1369023 1.98049245 8.543441 -0.0521534 13.26953125 -2.125 C23.1917015 -4.64816357 34.33786376 -4.33107212 43.26953125 0.875 C50.40526397 5.3611188 53.65859837 12.04220135 56.26953125 19.875 C56.36038379 21.29144596 56.39742254 22.71174765 56.39892578 24.13110352 C56.40207794 24.98531387 56.4052301 25.83952423 56.40847778 26.71961975 C56.40544144 28.09784157 56.40544144 28.09784157 56.40234375 29.50390625 C56.40330048 30.44934799 56.4042572 31.39478973 56.40524292 32.36888123 C56.40592334 34.36693386 56.40407866 36.36498872 56.39990234 38.36303711 C56.39454623 41.42892391 56.39985506 44.4946646 56.40625 47.56054688 C56.40558931 49.50000032 56.40430834 51.43945368 56.40234375 53.37890625 C56.40436798 54.29974503 56.40639221 55.2205838 56.40847778 56.16932678 C56.40374954 57.44591408 56.40374954 57.44591408 56.39892578 58.74829102 C56.39813019 59.49869156 56.39733459 60.2490921 56.39651489 61.02223206 C56.26953125 62.875 56.26953125 62.875 55.26953125 64.875 C51.06636379 66.13357557 46.8033852 65.99156948 42.45703125 65.9375 C41.76416016 65.93298828 41.07128906 65.92847656 40.35742188 65.92382812 C38.66142057 65.91213156 36.96546422 65.89419924 35.26953125 65.875 C32.7278908 62.05536307 33.0639929 58.1888428 33.1796875 53.78515625 C33.20010841 52.18034156 33.22028311 50.57552372 33.24023438 48.97070312 C33.28371652 46.45144083 33.33214043 43.93239238 33.38598633 41.41333008 C33.43438067 38.97477952 33.46417342 36.53651373 33.4921875 34.09765625 C33.51394547 33.34855484 33.53570343 32.59945343 33.55812073 31.82765198 C33.60076123 27.3130603 33.11702195 24.43195805 30.26953125 20.875 C26.76984269 19.08627029 24.95044114 18.74148826 21.08203125 19.5 C17.87953045 21.06566706 16.96598268 21.76611151 15.26953125 24.875 C14.79676316 27.91760067 14.78081162 30.94073894 14.7578125 34.015625 C14.7308857 35.33889801 14.7308857 35.33889801 14.70341492 36.68890381 C14.64932154 39.50088755 14.61541949 42.31270165 14.58203125 45.125 C14.5488573 47.03387777 14.51436757 48.94273315 14.47851562 50.8515625 C14.39359564 55.52591925 14.32677984 60.20022576 14.26953125 64.875 C11.14192117 66.43880504 7.82350609 66.01820695 4.39453125 66 C3.67394531 66.00386719 2.95335937 66.00773437 2.2109375 66.01171875 C-1.2749112 66.00529914 -4.37880636 65.81071501 -7.73046875 64.875 C-7.73981445 63.65393555 -7.74916016 62.43287109 -7.75878906 61.17480469 C-7.79867798 56.64204501 -7.86443368 52.10996485 -7.93798828 47.57763672 C-7.96620428 45.61646253 -7.98741569 43.65517449 -8.00146484 41.69384766 C-8.02288574 38.87343023 -8.06953084 36.05438257 -8.12109375 33.234375 C-8.12232239 32.35819519 -8.12355103 31.48201538 -8.12481689 30.57928467 C-8.22439768 25.60048225 -8.22439768 25.60048225 -10.61621094 21.32763672 C-13.15392992 19.58405381 -14.66468947 19.27804066 -17.73046875 19.25 C-18.57609375 19.21648437 -19.42171875 19.18296875 -20.29296875 19.1484375 C-22.97514895 19.70764258 -22.97514895 19.70764258 -24.84472656 22.35058594 C-27.21188408 26.77475553 -27.33247253 30.05993378 -27.33984375 34.9921875 C-27.35638 35.84934357 -27.37291626 36.70649963 -27.38995361 37.58963013 C-27.43828538 40.30982738 -27.45977113 43.02946621 -27.48046875 45.75 C-27.5086409 47.60159037 -27.53857007 49.4531549 -27.5703125 51.3046875 C-27.64404013 55.82807899 -27.69370505 60.35116319 -27.73046875 64.875 C-32.03033176 65.80687605 -36.00964379 66.00863531 -40.41796875 66 C-41.09408203 66.00386719 -41.77019531 66.00773437 -42.46679688 66.01171875 C-47.47697225 66.00174825 -47.47697225 66.00174825 -49.73046875 64.875 C-49.85516454 58.97094199 -49.94532027 53.06767017 -50.00512695 47.16259766 C-50.03008886 45.15888089 -50.06407097 43.15525345 -50.10766602 41.15185547 C-50.39815725 27.44750413 -50.57056255 16.1547607 -40.98046875 5.375 C-29.86902816 -4.74735402 -13.41588702 -5.93513896 0 0 Z " fill="#102247" transform="translate(237.73046875,109.125)"/>
<path d="M0 0 C2.29333109 2.0359936 3.88138338 3.91950259 5.5546875 6.4765625 C6.04324219 7.20617187 6.53179687 7.93578125 7.03515625 8.6875 C11.96264412 17.61766864 12.50305697 29.06152665 10.09375 38.859375 C6.98290639 48.45950527 1.81001663 54.87710296 -6.953125 59.84375 C-16.43188376 64.2929633 -27.7560874 64.31447307 -37.6328125 61.1015625 C-39.1178125 60.1115625 -39.1178125 60.1115625 -40.6328125 59.1015625 C-40.65263184 60.06046387 -40.67245117 61.01936523 -40.69287109 62.00732422 C-40.76885395 65.55967803 -40.8575818 69.11161826 -40.95019531 72.66357422 C-40.98851551 74.20190271 -41.02336306 75.74032175 -41.0546875 77.27880859 C-41.10027309 79.48828526 -41.1582759 81.69713698 -41.21875 83.90625 C-41.23030121 84.59588837 -41.24185242 85.28552673 -41.25375366 85.99606323 C-41.40506909 90.87381909 -41.40506909 90.87381909 -43.6328125 93.1015625 C-45.58813477 93.34448242 -45.58813477 93.34448242 -47.94921875 93.33203125 C-48.79548828 93.33009766 -49.64175781 93.32816406 -50.51367188 93.32617188 C-51.39861328 93.31392578 -52.28355469 93.30167969 -53.1953125 93.2890625 C-54.08412109 93.28841797 -54.97292969 93.28777344 -55.88867188 93.28710938 C-62.49260153 93.24177347 -62.49260153 93.24177347 -63.6328125 92.1015625 C-63.75786598 89.6098397 -63.81885485 87.14445661 -63.83813477 84.65112305 C-63.84803436 83.87045975 -63.85793396 83.08979645 -63.86813354 82.28547668 C-63.89988731 79.68644295 -63.92458355 77.08739146 -63.94921875 74.48828125 C-63.96979957 72.67999305 -63.99079633 70.87170953 -64.01219177 69.06343079 C-64.06754652 64.28241975 -64.11684884 59.50136375 -64.16503906 54.72027588 C-64.20501042 50.85006501 -64.24910457 46.97990667 -64.29347324 43.10974407 C-64.5326965 22.23071711 -64.5326965 22.23071711 -64.5930481 14.33480835 C-64.61381294 11.68582433 -64.65612265 9.04073664 -64.71432495 6.39199829 C-64.73246246 5.32524872 -64.75059998 4.25849915 -64.76928711 3.15942383 C-64.79083359 2.2641951 -64.81238007 1.36896637 -64.83457947 0.4466095 C-64.61494038 -2.10615715 -63.92381438 -3.70583838 -62.6328125 -5.8984375 C-59.71558702 -5.97947154 -56.80061734 -6.03894831 -53.8828125 -6.0859375 C-53.0578125 -6.11107422 -52.2328125 -6.13621094 -51.3828125 -6.16210938 C-45.20983496 -6.23678249 -45.20983496 -6.23678249 -42.0546875 -4.38671875 C-41.35085938 -3.65001953 -41.35085938 -3.65001953 -40.6328125 -2.8984375 C-39.9109375 -3.3728125 -39.1890625 -3.8471875 -38.4453125 -4.3359375 C-26.75344673 -10.83141849 -10.31837627 -7.44025351 0 0 Z M-38.6328125 19.1015625 C-40.96590327 22.9193474 -41.64860543 25.20136526 -41.5703125 29.6640625 C-40.28363666 34.38187392 -38.84545108 37.68068047 -34.61328125 40.3984375 C-29.67268457 42.8561108 -26.06175278 43.81067333 -20.6328125 42.1015625 C-16.44796718 39.99177534 -14.0683824 37.82297515 -11.6328125 33.7890625 C-10.37408932 29.14752076 -10.50126766 26.77861452 -11.6328125 22.1015625 C-14.00284595 18.29258016 -16.47652997 15.81828789 -20.6328125 14.1015625 C-27.71773027 12.98804347 -33.35306973 14.08706997 -38.6328125 19.1015625 Z " fill="#102247" transform="translate(363.6328125,112.8984375)"/>
<path d="M0 0 C0.89460938 -0.00128906 1.78921875 -0.00257812 2.7109375 -0.00390625 C3.65195312 -0.00003906 4.59296875 0.00382812 5.5625 0.0078125 C6.97402344 0.00201172 6.97402344 0.00201172 8.4140625 -0.00390625 C9.75597656 -0.00197266 9.75597656 -0.00197266 11.125 0 C11.95128906 0.00112793 12.77757812 0.00225586 13.62890625 0.00341797 C15.5625 0.1328125 15.5625 0.1328125 16.5625 1.1328125 C16.67333807 3.95698944 16.72414509 6.760826 16.73828125 9.5859375 C16.76148712 11.3372515 16.78560477 13.08855362 16.81054688 14.83984375 C16.84562492 17.60929213 16.87497812 20.37830605 16.88842773 23.14794922 C16.90392738 25.81531946 16.94415908 28.48140703 16.98828125 31.1484375 C16.98637283 31.97257141 16.98446442 32.79670532 16.98249817 33.64581299 C17.06762059 37.65756113 17.26590938 39.66733158 19.47338867 43.13183594 C22.1610394 45.70610091 23.06385023 46.08486541 26.8125 46.4453125 C31.38400264 46.06435395 33.24001046 45.30076764 36.5625 42.1328125 C39.17031709 33.95176759 38.72639056 25.68152643 38.5625 17.1953125 C38.50935097 14.39454821 38.46945233 11.59404547 38.4375 8.79296875 C38.41429687 7.56199463 38.39109375 6.33102051 38.3671875 5.06274414 C38.5625 2.1328125 38.5625 2.1328125 40.5625 0.1328125 C42.50195312 -0.12597656 42.50195312 -0.12597656 44.84375 -0.1328125 C45.68550781 -0.13539062 46.52726563 -0.13796875 47.39453125 -0.140625 C48.71517578 -0.12902344 48.71517578 -0.12902344 50.0625 -0.1171875 C50.94292969 -0.12492187 51.82335937 -0.13265625 52.73046875 -0.140625 C53.57222656 -0.13804688 54.41398438 -0.13546875 55.28125 -0.1328125 C56.44043945 -0.12942871 56.44043945 -0.12942871 57.62304688 -0.12597656 C59.5625 0.1328125 59.5625 0.1328125 61.5625 2.1328125 C61.82992554 4.84288025 61.82992554 4.84288025 61.85302734 8.33569336 C61.86578705 9.64142807 61.87854675 10.94716278 61.89169312 12.29246521 C61.89475286 13.72752739 61.8969795 15.16259155 61.8984375 16.59765625 C61.90486664 18.07060373 61.91159509 19.54354994 61.91860962 21.01649475 C61.93060523 24.1126704 61.93428874 27.20873438 61.93310547 30.30493164 C61.93290358 34.24553783 61.96005822 38.18541216 61.99464989 42.12584591 C62.01706381 45.17421146 62.02093842 48.22240596 62.01988602 51.27084541 C62.02222593 52.72151747 62.03095734 54.17219543 62.04655075 55.62278557 C62.16677122 67.97617393 60.21576816 79.69772956 51.5625 89.1328125 C39.46322145 98.56339772 27.45558656 99.57074643 12.5625 98.1328125 C8.18938849 97.22539695 4.38281046 95.4262982 0.5625 93.1328125 C-0.45070313 92.52759766 -0.45070313 92.52759766 -1.484375 91.91015625 C-2.8408353 91.0421461 -4.14917056 90.09905958 -5.4375 89.1328125 C-4.91986305 84.85713132 -2.25149259 82.10278397 0.4375 78.9453125 C0.88480469 78.39939453 1.33210938 77.85347656 1.79296875 77.29101562 C3.99912203 74.66510752 5.24894628 73.23733041 8.5625 72.1328125 C10.65625 73.12890625 10.65625 73.12890625 13.0625 74.5703125 C18.61075053 77.4742214 23.37887953 78.20062765 29.5625 77.1328125 C33.47325925 75.14312797 35.13939098 73.76747604 37.5625 70.1328125 C37.95263716 68.143113 38.29452649 66.14261381 38.5625 64.1328125 C37.716875 64.6278125 36.87125 65.1228125 36 65.6328125 C29.29847912 68.48539471 20.73403181 68.28337644 13.80078125 66.37109375 C11.6040938 65.42752512 9.60770007 64.36683617 7.5625 63.1328125 C6.510625 62.5965625 5.45875 62.0603125 4.375 61.5078125 C-0.54465449 57.3534376 -4.14509663 51.48086874 -5.4375 45.1328125 C-5.52574645 43.6423679 -5.56535136 42.14857154 -5.56689453 40.65551758 C-5.57004669 39.77813431 -5.57319885 38.90075104 -5.57644653 37.9967804 C-5.5744223 37.0581163 -5.57239807 36.11945221 -5.5703125 35.15234375 C-5.57126923 34.18374924 -5.57222595 33.21515472 -5.57321167 32.21720886 C-5.57389132 30.17385798 -5.57205202 28.13050492 -5.56787109 26.0871582 C-5.56250242 22.9467286 -5.56783228 19.80644089 -5.57421875 16.66601562 C-5.57355827 14.68229135 -5.57227774 12.69856716 -5.5703125 10.71484375 C-5.57334885 9.29773857 -5.57334885 9.29773857 -5.57644653 7.852005 C-5.57329437 6.98407822 -5.57014221 6.11615143 -5.56689453 5.22192383 C-5.56609894 4.45455399 -5.56530334 3.68718414 -5.56448364 2.89656067 C-5.30664814 -0.68466357 -3.0551918 0.0041705 0 0 Z " fill="#102247" transform="translate(487.4375,106.8671875)"/>
<path d="M0 0 C6.41444809 5.84765418 9.23268463 11.34401528 11.8125 19.65234375 C12.3075 21.13734375 12.3075 21.13734375 12.8125 22.65234375 C13.94078899 32.5664896 10.96598593 41.82063439 4.8125 49.65234375 C-2.76971899 58.28764871 -11.67039066 61.85819288 -22.96875 62.61328125 C-34.29680138 62.7507576 -44.19253982 59.65459469 -52.5625 51.90234375 C-56.30297692 47.8903806 -58.44591604 43.82238618 -60.1875 38.65234375 C-60.42339844 37.99363281 -60.65929687 37.33492187 -60.90234375 36.65625 C-63.691881 27.59481199 -61.43049979 17.91440724 -57.1875 9.65234375 C-50.77534244 0.2378836 -42.07775932 -5.13941893 -31.0625 -7.78515625 C-20.21557497 -9.48323717 -8.52185262 -7.02709218 0 0 Z M-35.1875 16.65234375 C-38.95859363 21.85033768 -39.99905954 25.26131239 -39.1875 31.65234375 C-37.49505015 34.98341539 -37.49505015 34.98341539 -35.1875 37.65234375 C-34.73375 38.22984375 -34.28 38.80734375 -33.8125 39.40234375 C-30.54294202 41.91738835 -27.33013196 42.70096639 -23.25 42.52734375 C-17.53113772 40.8933831 -13.62404653 39.06487137 -10.6875 33.83984375 C-8.94061513 29.78134829 -8.9140188 26.95034281 -10.1875 22.65234375 C-12.70419673 17.80537227 -14.98079543 15.38791194 -20.1875 13.65234375 C-25.72402858 13.01248812 -30.86805035 12.71402201 -35.1875 16.65234375 Z " fill="#0F2247" transform="translate(466.1875,113.34765625)"/>
<path d="M0 0 C3.29164829 -0.02895225 6.58326399 -0.0467823 9.875 -0.0625 C10.81214844 -0.07087891 11.74929688 -0.07925781 12.71484375 -0.08789062 C14.05869141 -0.09272461 14.05869141 -0.09272461 15.4296875 -0.09765625 C16.67081299 -0.10551147 16.67081299 -0.10551147 17.93701172 -0.11352539 C20 0 20 0 22 1 C22 33.34 22 65.68 22 99 C19.66836164 100.16581918 18.27846518 100.12905609 15.68359375 100.1328125 C14.41418945 100.13474609 14.41418945 100.13474609 13.11914062 100.13671875 C12.23419922 100.13285156 11.34925781 100.12898438 10.4375 100.125 C9.54869141 100.12886719 8.65988281 100.13273437 7.74414062 100.13671875 C6.89916016 100.13542969 6.05417969 100.13414062 5.18359375 100.1328125 C4.01654907 100.13112061 4.01654907 100.13112061 2.82592773 100.12939453 C1 100 1 100 0 99 C-0.12386897 97.03754468 -0.17799319 95.07066296 -0.20532227 93.10449219 C-0.2352401 91.20289337 -0.2352401 91.20289337 -0.26576233 89.26287842 C-0.28280046 87.85754584 -0.29967701 86.45221129 -0.31640625 85.046875 C-0.33702701 83.59319538 -0.35802462 82.13952107 -0.37937927 80.68585205 C-0.42350568 77.61221525 -0.46434662 74.5385581 -0.50268555 71.46484375 C-0.55072585 67.61824499 -0.60455968 63.77175909 -0.66063881 59.92527008 C-0.8810255 44.74771239 -1.04503114 29.56978185 -1.08984375 14.390625 C-1.09657608 13.16220886 -1.10330841 11.93379272 -1.11024475 10.66815186 C-1.11116623 9.55079651 -1.11208771 8.43344116 -1.11303711 7.28222656 C-1.11671547 5.81683441 -1.11671547 5.81683441 -1.12046814 4.32183838 C-1 2 -1 2 0 0 Z " fill="#0F2247" transform="translate(379,75)"/>
<path d="M0 0 C4.62 0 9.24 0 14 0 C14.33 6.93 14.66 13.86 15 21 C16.32 20.01 17.64 19.02 19 18 C25.07166092 15.92411593 32.23779882 16.30279945 38 19 C44.29443217 22.88277233 47.88433844 26.43593 49.6875 33.8125 C50.54903746 42.60018205 49.44365815 48.77519148 46 57 C45.34 57 44.68 57 44 57 C44 57.99 44 58.98 44 60 C35.84371696 65.37355118 28.49958931 65.78231912 19 65 C17.66538961 64.67181712 16.3314201 64.340895 15 64 C14.505 64.495 14.505 64.495 14 65 C11.64686445 65.07271741 9.29166332 65.08370868 6.9375 65.0625 C5.00197266 65.04896484 5.00197266 65.04896484 3.02734375 65.03515625 C2.02832031 65.02355469 1.02929688 65.01195312 0 65 C-2.35438496 43.47419463 -0.89350646 21.57179881 0 0 Z M17 33 C14.23396518 36.74753104 13.83124934 39.3738909 14.3125 43.875 C14.52395003 45.25283571 14.74715552 46.62915645 15 48 C15.99 48.33 16.98 48.66 18 49 C18.33 49.99 18.66 50.98 19 52 C20.258125 52.185625 21.51625 52.37125 22.8125 52.5625 C23.52019531 52.66691406 24.22789062 52.77132812 24.95703125 52.87890625 C27.2025342 53.13904799 27.2025342 53.13904799 30 52 C30 51.34 30 50.68 30 50 C30.99 50 31.98 50 33 50 C35.39068379 45.21863243 36.73354555 42.31620635 35 37 C32.78622283 33.64116567 30.85053441 31.3236212 27 30 C22.54521562 30 20.71856417 30.62644841 17 33 Z M14 61 C15 63 15 63 15 63 Z " fill="#023BF4" transform="translate(739,106)"/>
<path d="M0 0 C2.24854714 2.24854714 1.23248301 7.41800844 1.25 10.4375 C1.270625 11.32244141 1.29125 12.20738281 1.3125 13.11914062 C1.32023438 14.38854492 1.32023438 14.38854492 1.328125 15.68359375 C1.34214355 16.85233032 1.34214355 16.85233032 1.35644531 18.04467773 C1.23881836 18.68993408 1.12119141 19.33519043 1 20 C-2 22 -2 22 -5.8125 22.3125 C-10.5737318 22.79565083 -12.6885167 24.60774881 -16 28 C-17.09408004 31.28224011 -17.098908 33.64937587 -17.0625 37.1015625 C-17.05476562 38.31457031 -17.04703125 39.52757812 -17.0390625 40.77734375 C-17.01325875 43.31901284 -16.98722151 45.86067958 -16.9609375 48.40234375 C-16.91897486 55.0254467 -16.9938434 61.44600771 -18 68 C-19.58937556 69.58937556 -21.23899846 69.12981143 -23.4375 69.1328125 C-24.77941406 69.13474609 -24.77941406 69.13474609 -26.1484375 69.13671875 C-27.55996094 69.13091797 -27.55996094 69.13091797 -29 69.125 C-30.41152344 69.13080078 -30.41152344 69.13080078 -31.8515625 69.13671875 C-32.74617187 69.13542969 -33.64078125 69.13414062 -34.5625 69.1328125 C-35.38878906 69.13168457 -36.21507812 69.13055664 -37.06640625 69.12939453 C-39 69 -39 69 -40 68 C-40.29521794 62.21634414 -40.31438084 56.42987175 -40.35009766 50.6394043 C-40.36653411 48.69103956 -40.39365775 46.74273196 -40.43212891 44.79467773 C-40.69737375 31.28910242 -40.78683586 19.98448992 -31.125 9.5 C-21.99190773 1.27168136 -12.13514079 -0.93180545 0 0 Z " fill="#102247" transform="translate(595,106)"/>
<path d="M0 0 C4.28184245 1.7435416 7.13318273 3.65085341 10.0625 7.3125 C10.56394531 7.92222656 11.06539062 8.53195313 11.58203125 9.16015625 C13.19235032 11.50127975 13.95740467 13.52833668 14.75 16.25 C15.00136719 17.08402344 15.25273438 17.91804688 15.51171875 18.77734375 C17.17412051 26.42910789 14.09318684 31.87530604 10.0625 38.3125 C5.22613316 43.76962657 1.50950859 46.0979413 -5.765625 46.55078125 C-15.54675809 46.79475759 -22.07750432 46.73067789 -29.6875 39.8125 C-30.43 38.9875 -31.1725 38.1625 -31.9375 37.3125 C-32.700625 36.673125 -33.46375 36.03375 -34.25 35.375 C-36.51236425 32.60988814 -36.16455692 30.79403945 -35.9375 27.3125 C-36.2675 26.6525 -36.5975 25.9925 -36.9375 25.3125 C-37.2479575 18.32720622 -36.45886617 14.68162233 -31.9375 9.3125 C-31.6075 8.3225 -31.2775 7.3325 -30.9375 6.3125 C-30.2775 6.3125 -29.6175 6.3125 -28.9375 6.3125 C-28.9375 5.6525 -28.9375 4.9925 -28.9375 4.3125 C-19.15162274 -2.16004874 -11.24922044 -3.66920881 0 0 Z M-17.9375 14.3125 C-17.9375 14.9725 -17.9375 15.6325 -17.9375 16.3125 C-18.5975 16.3125 -19.2575 16.3125 -19.9375 16.3125 C-21.97434712 20.38619424 -21.9632259 22.90187864 -20.9375 27.3125 C-20.2775 27.3125 -19.6175 27.3125 -18.9375 27.3125 C-17.9375 29.3125 -16.9375 31.3125 -15.9375 33.3125 C-14.04216658 33.77773063 -14.04216658 33.77773063 -11.875 33.9375 C-10.575625 34.06125 -9.27625 34.185 -7.9375 34.3125 C-7.9375 33.6525 -7.9375 32.9925 -7.9375 32.3125 C-6.9475 32.6425 -5.9575 32.9725 -4.9375 33.3125 C-0.1687532 28.13028464 -0.1687532 28.13028464 1 21.4375 C0.1985913 18.44189828 0.1985913 18.44189828 -0.9375 16.3125 C-1.5975 16.3125 -2.2575 16.3125 -2.9375 16.3125 C-3.2675 15.3225 -3.5975 14.3325 -3.9375 13.3125 C-8.96183202 9.90313184 -13.23649355 10.82032378 -17.9375 14.3125 Z " fill="#053CF2" transform="translate(720.9375,124.6875)"/>
<path d="M0 0 C1.423125 0.7425 1.423125 0.7425 2.875 1.5 C2.875 2.16 2.875 2.82 2.875 3.5 C3.535 3.5 4.195 3.5 4.875 3.5 C9.33060374 9.60525633 10.5290553 14.23377117 9.53125 21.74609375 C8.63340081 25.51385376 7.48657641 27.65100756 4.875 30.5 C4.215 30.5 3.555 30.5 2.875 30.5 C2.545 31.16 2.215 31.82 1.875 32.5 C0.125 33.5 0.125 33.5 -2.125 34.5 C-3.2078125 35.0878125 -3.2078125 35.0878125 -4.3125 35.6875 C-9.28217248 37.12318316 -14.28224463 36.11425179 -19.125 34.5 C-24.02372307 30.50367329 -26.95131722 25.41981694 -29.125 19.5 C-29.52770049 14.81595743 -28.12510438 11.73099004 -26.125 7.5 C-25.85429688 6.82582031 -25.58359375 6.15164062 -25.3046875 5.45703125 C-20.39117361 -2.69419543 -7.92974923 -3.31868781 0 0 Z " fill="#023CF6" transform="translate(135.125,54.5)"/>
<path d="M0 0 C4.95 0 9.9 0 15 0 C15.93254763 2.79764289 16.10715104 4.35948822 16.0534668 7.23681641 C16.0398259 8.08845367 16.026185 8.94009094 16.01213074 9.8175354 C15.99136978 10.73626434 15.97060883 11.65499329 15.94921875 12.6015625 C15.9303511 13.55259857 15.91148346 14.50363464 15.89204407 15.48348999 C15.85014633 17.49930659 15.80540736 19.51506583 15.75805664 21.53076172 C15.68825227 24.59200933 15.63364695 27.65327456 15.58007812 30.71484375 C15.53739154 32.67710386 15.49380006 34.63934453 15.44921875 36.6015625 C15.43453049 37.50814606 15.41984222 38.41472961 15.40470886 39.3487854 C15.2149824 46.49965717 14.74629389 53.22647441 10.875 59.375 C5.51624556 64.2677758 0.21066875 65.3392662 -6.921875 65.30078125 C-9 65 -9 65 -13 63 C-12.34 59.04 -11.68 55.08 -11 51 C-9.9275 51.020625 -8.855 51.04125 -7.75 51.0625 C-4.85209576 51.0142016 -2.71387859 50.86844115 0 50 C-0.16226074 49.19965332 -0.32452148 48.39930664 -0.49169922 47.57470703 C-1.10155299 43.28581227 -1.14334284 39.12993374 -1.1328125 34.8046875 C-1.13424759 33.49988937 -1.13424759 33.49988937 -1.13571167 32.16873169 C-1.13638953 30.33823575 -1.13456281 28.50773736 -1.13037109 26.67724609 C-1.12500426 23.87722387 -1.1303361 21.0773611 -1.13671875 18.27734375 C-1.13605815 16.49479131 -1.13477737 14.71223898 -1.1328125 12.9296875 C-1.13483673 12.0942038 -1.13686096 11.25872009 -1.13894653 10.3979187 C-1.13579437 9.6167569 -1.13264221 8.83559509 -1.12939453 8.03076172 C-1.12859894 7.34714569 -1.12780334 6.66352966 -1.12698364 5.959198 C-1 4 -1 4 0 0 Z " fill="#013BF6" transform="translate(667,124)"/>
<path d="M0 0 C1.98 0 3.96 0 6 0 C6.33 28.71 6.66 57.42 7 87 C3.37673261 88.2077558 2.35853631 87.54311128 -1 86 C-1.02312283 74.93465142 -1.04091478 63.86930855 -1.05181217 52.80394077 C-1.05704113 47.66640434 -1.06413901 42.52888437 -1.07543945 37.39135742 C-1.08626787 32.4376859 -1.09227674 27.48403026 -1.09487724 22.53034782 C-1.09673157 20.63602384 -1.10035234 18.74170076 -1.10573006 16.8473835 C-1.11293989 14.20365614 -1.11399097 11.55999529 -1.11352539 8.91625977 C-1.11712067 8.12504227 -1.12071594 7.33382477 -1.12442017 6.51863098 C-1.11405216 1.11405216 -1.11405216 1.11405216 0 0 Z " fill="#1541CE" transform="translate(623,102)"/>
<path d="M0 0 C0.99 0 1.98 0 3 0 C3 27.39 3 54.78 3 83 C2.01 83 1.02 83 0 83 C0 55.61 0 28.22 0 0 Z " fill="#013AF5" transform="translate(624,104)"/>
<path d="M0 0 C2.91448066 0.86646722 3.73262648 1.60475219 5.4375 4.125 C6.25529328 8.30483234 5.07267376 11.33992133 3 15 C0.17106304 17.26314957 -2.44496047 17.36461944 -6 17 C-6.99 16.34 -7.98 15.68 -9 15 C-9.66 14.67 -10.32 14.34 -11 14 C-12.35353535 7.11952862 -12.35353535 7.11952862 -11.25 3.625 C-8.05188665 -0.53254736 -4.88188089 -0.34258813 0 0 Z " fill="#0B3FEB" transform="translate(678,105)"/>
<path d="M0 0 C4.95 0 9.9 0 15 0 C15.94987878 2.84963633 16.09747457 4.44237491 16.02172852 7.37963867 C15.99158409 8.70066841 15.99158409 8.70066841 15.96083069 10.04838562 C15.92027809 11.46882927 15.92027809 11.46882927 15.87890625 12.91796875 C15.85529526 13.89034988 15.83168427 14.86273102 15.80735779 15.86457825 C15.73074376 18.97236817 15.64670945 22.0799075 15.5625 25.1875 C15.50927707 27.2936075 15.45653668 29.39972726 15.40429688 31.50585938 C15.27513159 36.67073181 15.1393108 41.83539166 15 47 C14.67 47 14.34 47 14 47 C14 31.82 14 16.64 14 1 C8.06 1.495 8.06 1.495 2 2 C2 18.17 2 34.34 2 51 C0.68 51 -0.64 51 -2 51 C-2 51.66 -2 52.32 -2 53 C-7.75 53.125 -7.75 53.125 -10 52 C-10.33 55.63 -10.66 59.26 -11 63 C-10.34 63.33 -9.68 63.66 -9 64 C-10.32 63.67 -11.64 63.34 -13 63 C-12.34 59.04 -11.68 55.08 -11 51 C-9.9275 51.020625 -8.855 51.04125 -7.75 51.0625 C-4.85209576 51.0142016 -2.71387859 50.86844115 0 50 C-0.16226074 49.19965332 -0.32452148 48.39930664 -0.49169922 47.57470703 C-1.10155299 43.28581227 -1.14334284 39.12993374 -1.1328125 34.8046875 C-1.13424759 33.49988937 -1.13424759 33.49988937 -1.13571167 32.16873169 C-1.13638953 30.33823575 -1.13456281 28.50773736 -1.13037109 26.67724609 C-1.12500426 23.87722387 -1.1303361 21.0773611 -1.13671875 18.27734375 C-1.13605815 16.49479131 -1.13477737 14.71223898 -1.1328125 12.9296875 C-1.13483673 12.0942038 -1.13686096 11.25872009 -1.13894653 10.3979187 C-1.13579437 9.6167569 -1.13264221 8.83559509 -1.12939453 8.03076172 C-1.12859894 7.34714569 -1.12780334 6.66352966 -1.12698364 5.959198 C-1 4 -1 4 0 0 Z " fill="#1841CD" transform="translate(667,124)"/>
<path d="M0 0 C2.23822943 1.14790841 3.63255595 2.28590009 5.27734375 4.16796875 C4.22546875 3.79671875 3.17359375 3.42546875 2.08984375 3.04296875 C-1.90897839 2.12520629 -3.21393841 2.25412266 -6.72265625 4.16796875 C-7.05265625 3.17796875 -7.38265625 2.18796875 -7.72265625 1.16796875 C-9.73773983 0.43473079 -9.73773983 0.43473079 -11.72265625 0.16796875 C-11.72265625 0.82796875 -11.72265625 1.48796875 -11.72265625 2.16796875 C-15.72265625 1.16796875 -15.72265625 1.16796875 -17.59765625 0.57421875 C-20.06425469 0.10266317 -21.57061643 0.4248908 -23.97265625 1.10546875 C-25.21015625 1.45609375 -26.44765625 1.80671875 -27.72265625 2.16796875 C-20.29590075 -6.0014623 -9.31917599 -3.57166657 0 0 Z " fill="#0B3FE4" transform="translate(723.72265625,125.83203125)"/>
<path d="M0 0 C3 1 3 1 4 3 C3.0625 5.625 3.0625 5.625 2 8 C2.66 8.33 3.32 8.66 4 9 C4 9.66 4 10.32 4 11 C4.66 11.33 5.32 11.66 6 12 C5.278125 11.938125 4.55625 11.87625 3.8125 11.8125 C0.95772193 11.75367478 0.95772193 11.75367478 -1.06640625 13.48828125 C-5.28905106 15.66426466 -9.06932522 15.43731668 -13.75 15.375 C-15.03390625 15.39240234 -15.03390625 15.39240234 -16.34375 15.41015625 C-22.38946694 15.38267572 -27.39416688 14.24131215 -33 12 C-33 11.67 -33 11.34 -33 11 C-26.9453125 10.8046875 -26.9453125 10.8046875 -25 11 C-24.34 11.66 -23.68 12.32 -23 13 C-19.6514073 13.28326382 -19.6514073 13.28326382 -15.8125 13.1875 C-14.51957031 13.18105469 -13.22664063 13.17460937 -11.89453125 13.16796875 C-8.16894409 13.00728646 -4.67376737 12.59561728 -1 12 C-1.33 11.01 -1.66 10.02 -2 9 C-1.34 8.01 -0.68 7.02 0 6 C0.16699232 2.87478167 0.16699232 2.87478167 0 0 Z " fill="#244BD6" transform="translate(140,174)"/>
<path d="M0 0 C0.66 0.33 1.32 0.66 2 1 C4.69013339 1.18704404 7.29686177 1.08581391 10 1 C10.33 0.67 10.66 0.34 11 0 C15.8215583 -0.28362108 19.50492881 0.24582588 24 2 C24 2.66 24 3.32 24 4 C23.34 3.835 22.68 3.67 22 3.5 C17.79741967 2.79956995 12.89583941 2.0520803 9 4 C8.34 3.67 7.68 3.34 7 3 C6.67 3.66 6.34 4.32 6 5 C2.9375 5.625 2.9375 5.625 0 6 C0 6.66 0 7.32 0 8 C-1.98 8.99 -3.96 9.98 -6 11 C-6.33 9.68 -6.66 8.36 -7 7 C-5.35 6.34 -3.7 5.68 -2 5 C-2 3.68 -2 2.36 -2 1 C-1.34 0.67 -0.68 0.34 0 0 Z " fill="#0D3EDC" transform="translate(111,111)"/>
<path d="M0 0 C0.33 0 0.66 0 1 0 C2.30433619 5.93627021 2.11086318 11.83332252 2.0625 17.875 C2.05798828 18.94492188 2.05347656 20.01484375 2.04882812 21.1171875 C2.03709764 23.74481589 2.01916391 26.37241531 2 29 C5.96 29 9.92 29 14 29 C14.33 28.34 14.66 27.68 15 27 C15.33 27.99 15.66 28.98 16 30 C15 31 15 31 11.83984375 31.09765625 C10.55207031 31.08605469 9.26429688 31.07445312 7.9375 31.0625 C6.64714844 31.05347656 5.35679687 31.04445312 4.02734375 31.03515625 C3.02832031 31.02355469 2.02929688 31.01195312 1 31 C-0.02472362 20.64297197 -0.1050173 10.39671302 0 0 Z " fill="#2248CD" transform="translate(738,140)"/>
<path d="M0 0 C2.4375 0.75 2.4375 0.75 5 2 C5.8125 4.125 5.8125 4.125 6 6 C6.66 6 7.32 6 8 6 C8 6.66 8 7.32 8 8 C8.66 8 9.32 8 10 8 C13 13.75 13 13.75 13 16 C12.34 16 11.68 16 11 16 C10.67 15.34 10.34 14.68 10 14 C7.58380177 13.74969023 7.58380177 13.74969023 5 14 C4.01 15.485 4.01 15.485 3 17 C1.68 17 0.36 17 -1 17 C0.15173355 14.53199953 1.04783565 12.95216435 3 11 C3.99 11 4.98 11 6 11 C6 9.68 6 8.36 6 7 C5.01 6.67 4.02 6.34 3 6 C2.67 5.01 2.34 4.02 2 3 C1.34 2.67 0.68 2.34 0 2 C0 1.34 0 0.68 0 0 Z " fill="#0A3DE3" transform="translate(155,103)"/>
<path d="M0 0 C0.66 0 1.32 0 2 0 C5.66357258 6.69000209 6.90254906 13.42796504 6 21 C4.88639802 24.76387743 3.51531342 28.38083624 2 32 C1.34 32 0.68 32 0 32 C0 32.99 0 33.98 0 35 C-0.66 35 -1.32 35 -2 35 C-2.33 33.68 -2.66 32.36 -3 31 C-2.34 31 -1.68 31 -1 31 C-1 30.34 -1 29.68 -1 29 C-0.34 29 0.32 29 1 29 C1.33 27.35 1.66 25.7 2 24 C2.66 24 3.32 24 4 24 C3.85796663 21.62471849 3.71148388 19.24984749 3.5625 16.875 C3.52318359 16.20984375 3.48386719 15.5446875 3.44335938 14.859375 C3.187848 10.84981183 2.73217587 6.95005804 2 3 C1.34 3 0.68 3 0 3 C0 2.01 0 1.02 0 0 Z " fill="#1542D5" transform="translate(783,131)"/>
<path d="M0 0 C0.99 0 1.98 0 3 0 C4.52194825 2.41721193 5.01261321 3.73512258 4.875 6.625 C4 9 4 9 2.4375 10.14453125 C-0.99214647 11.34820525 -4.29278377 11.17095242 -7.875 11.0625 C-12.71049279 10.9413884 -17.22922727 11.12401066 -22 12 C-24.67810075 12.11196073 -27.31732686 12.04625299 -30 12 C-30 12.66 -30 13.32 -30 14 C-31.32 13.67 -32.64 13.34 -34 13 C-33.01 13 -32.02 13 -31 13 C-31 12.34 -31 11.68 -31 11 C-26.49793644 10.42797131 -21.99557488 9.85837041 -17.49291992 9.29101562 C-15.96126001 9.09767255 -14.42968361 8.90366672 -12.89819336 8.70898438 C-10.6966683 8.4292444 -8.49485378 8.15189042 -6.29296875 7.875 C-5.60849167 7.78750488 -4.92401459 7.70000977 -4.21879578 7.60986328 C-1.45313392 7.26403323 1.20906929 7 4 7 C2.02 3.535 2.02 3.535 0 0 Z " fill="#1642D3" transform="translate(145,121)"/>
<path d="M0 0 C0.33 0 0.66 0 1 0 C1.45760607 5.7200759 0.63848132 8.55296727 -3 13 C-8.02825914 17.69304187 -13.65229056 18.22255434 -20.2421875 18.0703125 C-20.82226562 18.04710937 -21.40234375 18.02390625 -22 18 C-22 17.67 -22 17.34 -22 17 C-18.04 16.505 -18.04 16.505 -14 16 C-13.67 15.01 -13.34 14.02 -13 13 C-10.69 13.33 -8.38 13.66 -6 14 C-6.061875 13.21625 -6.12375 12.4325 -6.1875 11.625 C-6.125625 10.75875 -6.06375 9.8925 -6 9 C-5.01 8.34 -4.02 7.68 -3 7 C-2.34 7.33 -1.68 7.66 -1 8 C-0.67 5.36 -0.34 2.72 0 0 Z " fill="#0C3ACF" transform="translate(680,171)"/>
<path d="M0 0 C0.33 0.66 0.66 1.32 1 2 C0.67 2.66 0.34 3.32 0 4 C0.99 4.33 1.98 4.66 3 5 C2.67 5.99 2.34 6.98 2 8 C-0.5625 9.1875 -0.5625 9.1875 -3 10 C-4.70884005 8.37660195 -6.37446717 6.70680947 -8 5 C-8 4.34 -8 3.68 -8 3 C-5.36 2.01 -2.72 1.02 0 0 Z " fill="#023AF7" transform="translate(148,166)"/>
<path d="M0 0 C1.88669369 3.1837956 2.33489911 5.31610974 2 9 C0.6875 12.11328125 0.6875 12.11328125 -1 15.3125 C-1.8353125 16.91544922 -1.8353125 16.91544922 -2.6875 18.55078125 C-3.3371875 19.76314453 -3.3371875 19.76314453 -4 21 C-4.33 21 -4.66 21 -5 21 C-5.66 18.69 -6.32 16.38 -7 14 C-5.71034824 12.62437146 -4.37310707 11.29233607 -3 10 C-2.34 10 -1.68 10 -1 10 C-1.020625 8.906875 -1.04125 7.81375 -1.0625 6.6875 C-1 3 -1 3 0 0 Z " fill="#093FEB" transform="translate(735,142)"/>
<path d="M0 0 C0.33 0 0.66 0 1 0 C1.02895225 3.29164829 1.0467823 6.58326399 1.0625 9.875 C1.07087891 10.81214844 1.07925781 11.74929687 1.08789062 12.71484375 C1.09272461 14.05869141 1.09272461 14.05869141 1.09765625 15.4296875 C1.10551147 16.67081299 1.10551147 16.67081299 1.11352539 17.93701172 C1 20 1 20 0 22 C-4.20316746 23.25857557 -8.46614605 23.11656948 -12.8125 23.0625 C-13.50537109 23.05798828 -14.19824219 23.05347656 -14.91210938 23.04882812 C-16.60811068 23.03713156 -18.30406703 23.01919924 -20 23 C-20 22.67 -20 22.34 -20 22 C-17.72954771 21.66408104 -15.45862367 21.33134935 -13.1875 21 C-11.92292969 20.814375 -10.65835937 20.62875 -9.35546875 20.4375 C-6 20 -6 20 -3 20 C-2.34 19.67 -1.68 19.34 -1 19 C-0.67 12.73 -0.34 6.46 0 0 Z " fill="#27304C" transform="translate(293,152)"/>
<path d="M0 0 C0.99 0.33 1.98 0.66 3 1 C2.649375 1.639375 2.29875 2.27875 1.9375 2.9375 C0.64763331 7.15106451 0.88217329 10.75061465 2 15 C4.82867119 18.37264642 8.83176385 18.95794096 13 20 C13 20.33 13 20.66 13 21 C9.04 20.67 5.08 20.34 1 20 C1 19.34 1 18.68 1 18 C0.34 17.67 -0.32 17.34 -1 17 C-2.24693506 11.09717031 -2.56126553 5.57451909 0 0 Z " fill="#123FD8" transform="translate(753,139)"/>
<path d="M0 0 C0.33 0.99 0.66 1.98 1 3 C6.94 3 12.88 3 19 3 C18.67 3.99 18.34 4.98 18 6 C11.73 6 5.46 6 -1 6 C-1.33 5.34 -1.66 4.68 -2 4 C-1.0625 1.875 -1.0625 1.875 0 0 Z " fill="#1F2B49" transform="translate(381,169)"/>
<path d="M0 0 C0.66 0 1.32 0 2 0 C2.185625 1.7015625 2.185625 1.7015625 2.375 3.4375 C2.684375 5.2009375 2.684375 5.2009375 3 7 C3.66 7.33 4.32 7.66 5 8 C5 7.34 5 6.68 5 6 C6.32 5.67 7.64 5.34 9 5 C8.34 3.68 7.68 2.36 7 1 C8.32 1.33 9.64 1.66 11 2 C11 2.66 11 3.32 11 4 C12.65 3.34 14.3 2.68 16 2 C12.6261161 5.67157953 9.64203381 8.12343314 5 10 C3.68 10 2.36 10 1 10 C0.67 6.7 0.34 3.4 0 0 Z " fill="#0B3DDD" transform="translate(143,175)"/>
<path d="M0 0 C0.66 0 1.32 0 2 0 C2.33 0.99 2.66 1.98 3 3 C4.65 3 6.3 3 8 3 C8.33 3.66 8.66 4.32 9 5 C8.01 5.495 8.01 5.495 7 6 C9.62451617 8.62451617 11.4877828 8.5832868 15.125 9.125 C16.22070312 9.29257813 17.31640625 9.46015625 18.4453125 9.6328125 C19.28835937 9.75398438 20.13140625 9.87515625 21 10 C19 12 19 12 16.94140625 12.01171875 C16.15636719 11.90472656 15.37132813 11.79773438 14.5625 11.6875 C13.38880859 11.53861328 13.38880859 11.53861328 12.19140625 11.38671875 C7.34368035 10.53123771 5.23076255 8.64496287 2 5 C0.6875 2.1875 0.6875 2.1875 0 0 Z " fill="#2049D4" transform="translate(109,79)"/>
<path d="M0 0 C0.66 0.33 1.32 0.66 2 1 C1.375 3.375 1.375 3.375 0 6 C-2.875 7.125 -2.875 7.125 -6 8 C-7.33790641 8.99387334 -8.67218122 9.9926892 -10 11 C-10.99 11 -11.98 11 -13 11 C-13 10.34 -13 9.68 -13 9 C-9.14450335 5.56545087 -4.61359004 2.30679502 0 0 Z " fill="#113FDB" transform="translate(106,96)"/>
<path d="M0 0 C1.32 0.66 2.64 1.32 4 2 C3.65066406 2.68707031 3.30132812 3.37414062 2.94140625 4.08203125 C2.48636719 4.98308594 2.03132813 5.88414063 1.5625 6.8125 C1.11003906 7.70582031 0.65757813 8.59914062 0.19140625 9.51953125 C-1.58219414 13.21210912 -2.1369448 16.00723924 -2.125 20.0625 C-2.12757812 20.94035156 -2.13015625 21.81820312 -2.1328125 22.72265625 C-2.14833424 25.03198266 -2.14833424 25.03198266 -1 27 C-1.99 27 -2.98 27 -4 27 C-4.33 27.66 -4.66 28.32 -5 29 C-4.69162669 20.83342416 -4.31109935 13.58793601 -1 6 C-0.60919203 4.01043215 -0.25149128 2.01193023 0 0 Z " fill="#1240D6" transform="translate(101,121)"/>
<path d="M0 0 C0.99 0.33 1.98 0.66 3 1 C3 2.98 3 4.96 3 7 C1.68 7 0.36 7 -1 7 C-1 7.66 -1 8.32 -1 9 C-6.75 9.125 -6.75 9.125 -9 8 C-9.33 11.63 -9.66 15.26 -10 19 C-9.34 19.33 -8.68 19.66 -8 20 C-9.32 19.67 -10.64 19.34 -12 19 C-11.34 15.04 -10.68 11.08 -10 7 C-8.9275 7.020625 -7.855 7.04125 -6.75 7.0625 C-3.85209576 7.0142016 -1.71387859 6.86844115 1 6 C0.67 4.02 0.34 2.04 0 0 Z " fill="#1641D0" transform="translate(666,168)"/>
<path d="M0 0 C0.33 0.66 0.66 1.32 1 2 C0.67 2.66 0.34 3.32 0 4 C0.99 3.67 1.98 3.34 3 3 C3.144375 4.216875 3.28875 5.43375 3.4375 6.6875 C3.82780953 9.82670377 4.32351856 12.9075134 5 16 C4.34 16 3.68 16 3 16 C3 17.32 3 18.64 3 20 C2.34 20 1.68 20 1 20 C1.226875 18.80375 1.45375 17.6075 1.6875 16.375 C2.22591869 12.0904006 1.38850866 9.66806688 -1 6 C-2.56102491 4.18445841 -2.56102491 4.18445841 -4 3 C-2.68 2.01 -1.36 1.02 0 0 Z " fill="#103FD9" transform="translate(772,134)"/>
<path d="M0 0 C0 0.66 0 1.32 0 2 C-7.92 2 -15.84 2 -24 2 C-24 1.34 -24 0.68 -24 0 C-16.06695918 -1.41031837 -7.91253 -1.7108173 0 0 Z " fill="#1A44D6" transform="translate(138,93)"/>
<path d="M0 0 C4.36803833 1.05156478 5.76071676 1.76071676 9 5 C2.07 4.01 -4.86 3.02 -12 2 C-7.93074779 -0.71283481 -4.76862567 -0.39942335 0 0 Z " fill="#1540CF" transform="translate(771,123)"/>
<path d="M0 0 C6.0546875 -0.1953125 6.0546875 -0.1953125 8 0 C8.66 0.66 9.32 1.32 10 2 C12.03060659 2.36894582 12.03060659 2.36894582 14.3515625 2.4140625 C15.20234375 2.45273438 16.053125 2.49140625 16.9296875 2.53125 C17.81914063 2.5621875 18.70859375 2.593125 19.625 2.625 C20.97078125 2.68300781 20.97078125 2.68300781 22.34375 2.7421875 C24.5622927 2.83659357 26.78082403 2.92216748 29 3 C29 3.33 29 3.66 29 4 C25.85434954 4.08845016 22.70902625 4.14086835 19.5625 4.1875 C18.68400391 4.21263672 17.80550781 4.23777344 16.90039062 4.26367188 C10.71986094 4.33209102 5.72459913 3.32816113 0 1 C0 0.67 0 0.34 0 0 Z " fill="#133CC1" transform="translate(107,185)"/>
<path d="M0 0 C0 0.66 0 1.32 0 2 C-0.99 2 -1.98 2 -3 2 C-3 3.98 -3 5.96 -3 8 C-3.61875 8.061875 -4.2375 8.12375 -4.875 8.1875 C-7.27761141 8.828919 -7.27761141 8.828919 -8.25 11.5625 C-8.4975 12.366875 -8.745 13.17125 -9 14 C-9.66 13.67 -10.32 13.34 -11 13 C-10.42437172 9.66135596 -9.40936384 8.30897368 -7 6 C-6.67 5.01 -6.34 4.02 -6 3 C-5.34 3 -4.68 3 -4 3 C-4 2.34 -4 1.68 -4 1 C-2 0 -2 0 0 0 Z " fill="#1442DA" transform="translate(696,128)"/>
<path d="M0 0 C0.84304688 0.23009766 0.84304688 0.23009766 1.703125 0.46484375 C8.34077193 2.01137033 15.2156739 2.12563567 22 2 C18.38990719 4.40672854 15.73024719 4.29795107 11.5625 4.25 C9.58443359 4.25773438 9.58443359 4.25773438 7.56640625 4.265625 C4.3635216 4.02707499 2.65141553 3.7088407 0 2 C0 1.34 0 0.68 0 0 Z " fill="#1640CC" transform="translate(754,167)"/>
<path d="M0 0 C1.9375 0.1875 1.9375 0.1875 4 1 C5.25 3.0625 5.25 3.0625 6 5 C4.35 5 2.7 5 1 5 C1 5.66 1 6.32 1 7 C0.01 6.67 -0.98 6.34 -2 6 C-1.125 1.125 -1.125 1.125 0 0 Z " fill="#013AFB" transform="translate(147,176)"/>
<path d="M0 0 C0 0.66 0 1.32 0 2 C0.60328125 2.17015625 1.2065625 2.3403125 1.828125 2.515625 C6.51063372 3.93548248 9.85311149 5.03218406 13 9 C11.68 9 10.36 9 9 9 C9 8.34 9 7.68 9 7 C7.96875 6.71125 6.9375 6.4225 5.875 6.125 C2.54992003 5.17691202 -0.72751453 4.11743406 -4 3 C-4 2.34 -4 1.68 -4 1 C-2 0 -2 0 0 0 Z " fill="#113DCF" transform="translate(142,94)"/>
<path d="M0 0 C0.91058531 3.07322544 1.08886184 5.80097361 1 9 C-0.32 9.33 -1.64 9.66 -3 10 C-3 11.65 -3 13.3 -3 15 C-3.33 15 -3.66 15 -4 15 C-4 12.36 -4 9.72 -4 7 C-3.34 7 -2.68 7 -2 7 C-2 5.35 -2 3.7 -2 2 C-1.34 2 -0.68 2 0 2 C0 1.34 0 0.68 0 0 Z " fill="#103ED5" transform="translate(83,119)"/>
<path d="M0 0 C1.87563625 3.16513618 2.42635855 5.3333165 2 9 C1.12903756 11.4165432 0.09638899 13.67017339 -1 16 C-1.33 16 -1.66 16 -2 16 C-1.85890014 13.89551062 -1.71195825 11.7914123 -1.5625 9.6875 C-1.48128906 8.51574219 -1.40007813 7.34398437 -1.31640625 6.13671875 C-1 3 -1 3 0 0 Z " fill="#1F48D2" transform="translate(735,142)"/>
<path d="M0 0 C0.33 0 0.66 0 1 0 C1.2954439 5.02254631 0.98514628 7.89542386 -2 12 C-3.32 11.67 -4.64 11.34 -6 11 C-5.34 9.68 -4.68 8.36 -4 7 C-3.01 7.33 -2.02 7.66 -1 8 C-0.67 5.36 -0.34 2.72 0 0 Z " fill="#0E3FDD" transform="translate(680,171)"/>
<path d="M0 0 C0.66 0 1.32 0 2 0 C1.79375 1.216875 1.5875 2.43375 1.375 3.6875 C0.90036156 7.34806773 1.23418616 9.67611512 3 13 C0 12 0 12 -1.25 10.25 C-2.49519764 6.51440708 -1.20947697 3.62843092 0 0 Z " fill="#123FD9" transform="translate(699,141)"/>
<path d="M0 0 C2 2 2 2 2.08203125 4.71484375 C1.99308594 5.77832031 1.90414062 6.84179688 1.8125 7.9375 C1.73644531 8.99839844 1.66039062 10.05929688 1.58203125 11.15234375 C0.9669558 14.16167261 0.38611174 15.15413998 -2 17 C-2 14.69 -2 12.38 -2 10 C-1.34 10 -0.68 10 0 10 C0 6.7 0 3.4 0 0 Z " fill="#1541D3" transform="translate(143,65)"/>
<path d="M0 0 C4.0042343 3.49087093 5.62671065 5.64951939 6 11 C4.078125 10.2890625 4.078125 10.2890625 2 9 C1.171875 6.8359375 1.171875 6.8359375 0.75 4.375 C0.60046875 3.55773437 0.4509375 2.74046875 0.296875 1.8984375 C0.19890625 1.27195313 0.1009375 0.64546875 0 0 Z " fill="#113FD9" transform="translate(729,131)"/>
<path d="M0 0 C0.33 0 0.66 0 1 0 C1 4.95 1 9.9 1 15 C-1.35145082 11.47282377 -1.71009408 9.20363578 -2 5 C-1.0625 2.0625 -1.0625 2.0625 0 0 Z " fill="#2147CF" transform="translate(108,64)"/>
<path d="M0 0 C0.66 0 1.32 0 2 0 C2.66 0.99 3.32 1.98 4 3 C4.99 3 5.98 3 7 3 C7.33 4.65 7.66 6.3 8 8 C6.68 7.67 5.36 7.34 4 7 C4 6.34 4 5.68 4 5 C3.34 5 2.68 5 2 5 C1.34 3.35 0.68 1.7 0 0 Z " fill="#1640D3" transform="translate(89,171)"/>
<path d="M0 0 C0.33 0.99 0.66 1.98 1 3 C0.01 3.33 -0.98 3.66 -2 4 C-1.67 5.65 -1.34 7.3 -1 9 C-2.37562854 7.71034824 -3.70766393 6.37310707 -5 5 C-5 3 -5 3 -3.625 1.375 C-2 0 -2 0 0 0 Z " fill="#093BDE" transform="translate(90,162)"/>
<path d="M0 0 C1.32 1.32 2.64 2.64 4 4 C4 3.34 4 2.68 4 2 C4.66 2.33 5.32 2.66 6 3 C5.67 3.66 5.34 4.32 5 5 C4.34 5 3.68 5 3 5 C2.67 5.66 2.34 6.32 2 7 C1.34 7 0.68 7 0 7 C0 6.01 0 5.02 0 4 C-0.99 3.67 -1.98 3.34 -3 3 C-2.01 2.67 -1.02 2.34 0 2 C0 1.34 0 0.68 0 0 Z " fill="#0D42E8" transform="translate(135,80)"/>
<path d="M0 0 C0.598125 0.20625 1.19625 0.4125 1.8125 0.625 C1.8125 1.285 1.8125 1.945 1.8125 2.625 C-0.1675 3.615 -2.1475 4.605 -4.1875 5.625 C-4.5175 4.305 -4.8475 2.985 -5.1875 1.625 C-2.1875 -0.375 -2.1875 -0.375 0 0 Z " fill="#0D3FE1" transform="translate(109.1875,116.375)"/>
<path d="M0 0 C0.66 0.33 1.32 0.66 2 1 C2 1.66 2 2.32 2 3 C2.33 3.66 2.66 4.32 3 5 C-1.455 5.495 -1.455 5.495 -6 6 C-5.67 5.34 -5.34 4.68 -5 4 C-4.34 3.855625 -3.68 3.71125 -3 3.5625 C-2.01 3.2840625 -2.01 3.2840625 -1 3 C-0.67 2.01 -0.34 1.02 0 0 Z " fill="#1642DC" transform="translate(155,158)"/>
<path d="M0 0 C0 3 0 3 -1 5 C-1.66 5 -2.32 5 -3 5 C-3 5.66 -3 6.32 -3 7 C-3.66 7 -4.32 7 -5 7 C-5.33 7.66 -5.66 8.32 -6 9 C-6.3125 6.6875 -6.3125 6.6875 -6 4 C-3.5625 2.25 -3.5625 2.25 -1 1 C-0.67 0.67 -0.34 0.34 0 0 Z " fill="#1843CF" transform="translate(166,168)"/>
<path d="M0 0 C-0.33 0.66 -0.66 1.32 -1 2 C-3.72265625 2.8515625 -3.72265625 2.8515625 -7.0625 3.625 C-8.16722656 3.88539062 -9.27195312 4.14578125 -10.41015625 4.4140625 C-11.26480469 4.60742188 -12.11945312 4.80078125 -13 5 C-8.83899185 0.72178035 -6.05684205 -0.275311 0 0 Z " fill="#1B43CC" transform="translate(709,123)"/>
<path d="M0 0 C0.66 0.33 1.32 0.66 2 1 C1.34 2.65 0.68 4.3 0 6 C-1.32 5.67 -2.64 5.34 -4 5 C-2.68 3.35 -1.36 1.7 0 0 Z " fill="#0C40E8" transform="translate(106,96)"/>
<path d="M0 0 C0.66 0 1.32 0 2 0 C2.33 0.99 2.66 1.98 3 3 C4.65 3 6.3 3 8 3 C8.33 3.66 8.66 4.32 9 5 C6.55492066 5.87324262 5.32299678 6.10151327 2.8125 5.3125 C1 4 1 4 0.25 1.875 C0.1675 1.25625 0.085 0.6375 0 0 Z " fill="#1642E5" transform="translate(109,79)"/>
<path d="M0 0 C2.31 0 4.62 0 7 0 C7 0.33 7 0.66 7 1 C5.35 1 3.7 1 2 1 C1.67 2.32 1.34 3.64 1 5 C0.34 5 -0.32 5 -1 5 C-0.67 3.35 -0.34 1.7 0 0 Z " fill="#222E4C" transform="translate(379,75)"/>
<path d="" fill="#4C68D5" transform="translate(0,0)"/>
<path d="" fill="#4C68D5" transform="translate(0,0)"/>
<path d="" fill="#4C68D5" transform="translate(0,0)"/>
</svg>
