<svg xmlns="http://www.w3.org/2000/svg" width="1600" height="1000" viewBox="0 0 1600 1000" preserveAspectRatio="xMidYMid slice">
  <defs>
    <linearGradient id="sky" x1="0" y1="0" x2="0" y2="1">
      <stop offset="0" stop-color="#1a1a1e"/>
      <stop offset=".55" stop-color="#26262c"/>
      <stop offset="1" stop-color="#0d0d10"/>
    </linearGradient>
    <linearGradient id="route" x1="0" y1="1" x2="0" y2="0">
      <stop offset="0" stop-color="#0000ff"/>
      <stop offset="1" stop-color="#4d4dff"/>
    </linearGradient>
  </defs>
  <rect width="1600" height="1000" fill="url(#sky)"/>
  <g stroke="#3a3a42" stroke-width="2" opacity=".5">
    <line x1="200" y1="1000" x2="520" y2="220"/><line x1="620" y1="1000" x2="760" y2="260"/>
    <line x1="1050" y1="1000" x2="980" y2="240"/><line x1="1420" y1="1000" x2="1240" y2="220"/>
  </g>
  <g fill="#202024">
    <rect x="380" y="300" width="180" height="700"/><rect x="700" y="200" width="150" height="800"/>
    <rect x="920" y="360" width="210" height="640"/><rect x="1220" y="260" width="170" height="740"/>
  </g>
  <path d="M800 1000 C 820 780 700 720 830 560 S 900 340 860 140" fill="none" stroke="url(#route)" stroke-width="14" stroke-linecap="round"/>
  <path d="M800 1000 C 820 780 700 720 830 560 S 900 340 860 140" fill="none" stroke="#0000ff" stroke-width="14" stroke-linecap="round" opacity=".55"/>
</svg>
